<svg id="Layer_1" data-name="Layer 1" xmlns="http://www.w3.org/2000/svg" viewBox="0 0 122.88 85.7"><defs><style>.cls-1{fill-rule:evenodd;}</style></defs><title>financial-advisor</title><path class="cls-1" d="M0,85.7c1-13-1.54-12.39,9.31-16.46,5.42-2,12.34-4.6,17.31-7.71L35.93,85.7ZM92.2,32.48a25.54,25.54,0,0,1-4.4-1.71l1-4.89,1.36.38a46.45,46.45,0,0,0,5.94,1.31,3.31,3.31,0,0,0,1.09,0,1,1,0,0,0,.2-1.78,9.25,9.25,0,0,0-1.83-.42,10.75,10.75,0,0,1-2.79-.92,4.91,4.91,0,0,1-2.86-3.8,9.13,9.13,0,0,1,.14-3l.18-.89a7.44,7.44,0,0,1,1-2.65,5.89,5.89,0,0,1,5.1-2.54l.43-2.17,4.51.88-.4,2.09a30.78,30.78,0,0,1,4.08,1.56l.29.13-1,4.91-.43-.13a43.61,43.61,0,0,0-6.21-1.44,2.16,2.16,0,0,0-1.38.14,1.23,1.23,0,0,0,.11,1.92,2.56,2.56,0,0,0,.66.21,16.57,16.57,0,0,1,3.56.89,5.82,5.82,0,0,1,1.41.88,5.14,5.14,0,0,1,1.63,2.51,5.73,5.73,0,0,1,.23,1.5,14.08,14.08,0,0,1-1,4.79,5.56,5.56,0,0,1-1.08,1.64,6.19,6.19,0,0,1-5,1.49l-.46,2.35-4.51-.88.46-2.33ZM46.56,72.85h1.3A2.13,2.13,0,0,0,50,70.73V67.27a2.13,2.13,0,0,0-2.12-2.12H40.15A2.13,2.13,0,0,0,38,67.27v3.46a2.14,2.14,0,0,0,2.13,2.12h1.31L38.94,85.7H49L46.56,72.85ZM104.67,5.63,87.24,3.32A8.09,8.09,0,0,0,84,3.5,8.18,8.18,0,0,0,81.2,4.93a8.29,8.29,0,0,0-2.12,2.36,8.44,8.44,0,0,0-1,3.05l-2.25,17c-.15,1.14-1.39,4.82-1.12,5.81a8,8,0,0,0,6.83,6l7.48,1a1.62,1.62,0,0,1,1.39,1.81,2.33,2.33,0,0,1-.16.53c-.43,1-.87,2-1.36,3s-1,2-1.61,2.9c-.29.47-.61.92-1,1.38a29.65,29.65,0,0,0,4.62-1.77,28.87,28.87,0,0,0,4.31-2.54,27.12,27.12,0,0,0,3.81-3.28,1.62,1.62,0,0,1,1.36-.46l6.43.85a8,8,0,0,0,3.19-.18,8.65,8.65,0,0,0,2.85-1.42A8.16,8.16,0,0,0,115,38.53a8.26,8.26,0,0,0,1-3.05l3.56-19.6a8.06,8.06,0,0,0-7-9.17l-7.89-1v0Zm-9.1-4.45L113,3.48a11.52,11.52,0,0,1,4.21,1.41,11.2,11.2,0,0,1,3.33,3,11.46,11.46,0,0,1,2,4,11.53,11.53,0,0,1,.25,4.44l-3.55,19.61a11.45,11.45,0,0,1-1.41,4.21,11.1,11.1,0,0,1-3,3.33,11,11,0,0,1-8.42,2.24l-5.64-.75A31.32,31.32,0,0,1,97.14,48a30.44,30.44,0,0,1-4.79,2.83,33.94,33.94,0,0,1-5.35,2A39.45,39.45,0,0,1,81.16,54a1.63,1.63,0,0,1-1.54-.7,1.61,1.61,0,0,1,.43-2.23,17.67,17.67,0,0,0,2.66-2.16,12.09,12.09,0,0,0,1.82-2.3h0c.53-.87,1-1.76,1.48-2.66l.47-1-5.38-.71a11.56,11.56,0,0,1-4.22-1.4,11.81,11.81,0,0,1-5.31-6.94c-.37-1.42.84-5.51,1-7l2.27-17a11.7,11.7,0,0,1,1.4-4.21,11.24,11.24,0,0,1,3-3.33,11.37,11.37,0,0,1,4-2A11.48,11.48,0,0,1,87.65.11l7.89,1,0,0ZM33.07,54.1c.24-2-5.66-9.58-6.73-13.22-2.31-3.67-3.13-9.51-.62-13.39,1-1.54.58-4.28.58-6.41,0-21.12,37-21.13,37,0,0,2.67-.61,4.7.83,6.81,2.42,3.51,1.18,9.73-.87,13C62,44.72,55.77,52,56.19,54.11,56.58,65,33,64.59,33.07,54.1Zm28.72,6.33c4.56,2.91,11,5.3,16.16,7,10.13,3.37,10.1,3.84,10,18.25H52.19l9.6-25.27Z"/></svg>