<svg id="Layer_1" data-name="Layer 1" xmlns="http://www.w3.org/2000/svg" viewBox="0 0 122.88 121.28"><defs><style>.cls-1{fill:#262626;}.cls-1,.cls-2,.cls-3,.cls-4{fill-rule:evenodd;}.cls-3{fill:#1f8e5b;}.cls-4{fill:#42a5f5;}</style></defs><title>online-training</title><path class="cls-1" d="M2.76,65.72h8.45a2.38,2.38,0,0,1-1.77-2.28V2.35A2.36,2.36,0,0,1,11.79,0h98.68a2.36,2.36,0,0,1,2.35,2.35V63.43a2.36,2.36,0,0,1-1.76,2.28h9.06a2.76,2.76,0,0,1,2.76,2.75h0a2.77,2.77,0,0,1-2.76,2.76H96.83a15.8,15.8,0,0,0-2.71-8.45h15V3.69H13.46V62.77h8.29a12.55,12.55,0,0,0-.92,1.56A11.82,11.82,0,0,0,20,66.59l-.09.4a12.26,12.26,0,0,0-.28,2,13.21,13.21,0,0,0,.07,2.25H2.76A2.77,2.77,0,0,1,0,68.46H0a2.75,2.75,0,0,1,2.76-2.74Zm56.77-2.95h3a15.07,15.07,0,0,0-2,4.13l-.12-1a13.34,13.34,0,0,0-.54-2.31q-.15-.45-.33-.87Z"/><path class="cls-1" d="M50.94,39.71c.13-1.12-3.19-5.39-3.79-7.44-1.3-2.06-1.76-5.35-.35-7.53.57-.86.32-2.4.32-3.6,0-11.88,20.81-11.88,20.81,0,0,1.5-.34,2.64.47,3.83,1.36,2,.66,5.47-.49,7.31-.74,2.15-4.22,6.21-4,7.43.22,6.1-13,5.9-13,0Zm7.58,10.54h.73a1.2,1.2,0,0,0,1.2-1.2V47.11a1.2,1.2,0,0,0-1.2-1.2H54.92a1.2,1.2,0,0,0-1.2,1.2v1.94a1.2,1.2,0,0,0,1.2,1.2h.74l-1.42,4.59h5.65l-1.37-4.59ZM32.34,54.84c.77-9.9,5.45-5,15-11l5.23,11Zm49.89,0c-.76-9.9-5.45-5-15-11L62,54.84Z"/><path class="cls-1" d="M50.5,104.26c4.43-8.76,18.4-1.33,19.55-11.15.15-1.28-2.85-4.71-3.54-7-1.47-2.35-2-6.08-.39-8.56.64-1,.37-4.17.37-5.52,0-13.5,23.66-13.51,23.66,0,0,1.71-.39,4.43.53,5.77,1.56,2.25.76,6.23-.55,8.31-.84,2.44-4,5.66-3.76,7,2,10.07,15.19,1.29,18.21,11.15Z"/><path class="cls-2" d="M48.12,108.13h58.2a9.17,9.17,0,0,1,9.14,9.14v4H39v-4a9.18,9.18,0,0,1,9.15-9.14Z"/><path class="cls-3" d="M42.14,61,30.87,62.46a7.54,7.54,0,0,0-2.72.91A7.11,7.11,0,0,0,26,65.29a7.5,7.5,0,0,0-1.29,2.57,7.62,7.62,0,0,0-.17,2.87l2.31,12.69a7.34,7.34,0,0,0,.9,2.72,7.11,7.11,0,0,0,1.92,2.15,7.14,7.14,0,0,0,5.45,1.46l3.65-.49a21.17,21.17,0,0,0,2.36,2,20.18,20.18,0,0,0,3.1,1.83,22,22,0,0,0,3.46,1.31,24.55,24.55,0,0,0,3.78.76,1,1,0,0,0,1-.44,1,1,0,0,0-.28-1.45,11.34,11.34,0,0,1-1.72-1.4,7.74,7.74,0,0,1-1.17-1.49h0q-.52-.84-1-1.71L48,88l3.49-.46a7.42,7.42,0,0,0,2.72-.91,7.62,7.62,0,0,0,3.43-4.49c.24-.92-.55-3.56-.67-4.55l-1.47-11a7.59,7.59,0,0,0-.9-2.72,7.33,7.33,0,0,0-7.36-3.6l-5.1.68,0,0Zm5.7,8.32a1,1,0,0,0,.79-1.06.92.92,0,0,0-1-.81l-15,2.19a1,1,0,0,0-.78,1.06.92.92,0,0,0,1,.81l15-2.19ZM50.37,81a1,1,0,0,0,.79-1.06.92.92,0,0,0-1-.81l-15,2.19a1,1,0,0,0-.78,1.06.92.92,0,0,0,1,.81l15-2.19Zm-5.73-5.1a.93.93,0,0,0,.78-1.06.92.92,0,0,0-1-.81L34,75.66a.93.93,0,0,0-.78,1.06.91.91,0,0,0,1,.81l10.44-1.64Z"/><path class="cls-4" d="M86,8.27,96.9,9.71a7.29,7.29,0,0,1,2.64.88,6.93,6.93,0,0,1,2.09,1.86,7.21,7.21,0,0,1,1.25,2.49,7.42,7.42,0,0,1,.16,2.79L100.81,30a7.35,7.35,0,0,1-.88,2.64,6.91,6.91,0,0,1-1.86,2.08A7.26,7.26,0,0,1,95.57,36a7,7,0,0,1-2.79.17l-3.54-.47A20.89,20.89,0,0,1,87,37.64a18.55,18.55,0,0,1-3,1.77,20.71,20.71,0,0,1-3.35,1.28,24.57,24.57,0,0,1-3.67.74,1,1,0,0,1-.69-1.84,11.81,11.81,0,0,0,1.67-1.35A8.07,8.07,0,0,0,79,36.79h0c.33-.54.65-1.1.93-1.66l.29-.62-3.37-.44a7.23,7.23,0,0,1-2.65-.89,6.78,6.78,0,0,1-2.08-1.86,7.08,7.08,0,0,1-1.25-2.5c-.23-.89.53-3.45.65-4.41L73,13.73a7.4,7.4,0,0,1,.88-2.65A6.88,6.88,0,0,1,75.72,9,6.92,6.92,0,0,1,81,7.59l5,.66,0,0ZM78,27.68a.91.91,0,0,1-.75-1,.89.89,0,0,1,1-.79L92.75,28a.92.92,0,0,1,.76,1,.9.9,0,0,1-1,.79L78,27.68Zm2.46-11.34a.92.92,0,0,1-.76-1,.89.89,0,0,1,1-.79L95.2,16.65a.92.92,0,0,1,.76,1,.9.9,0,0,1-1,.79L80.44,16.34Zm-.89,5.76a.91.91,0,0,1,.24-1.81l7.36,1.11a.91.91,0,0,1,.76,1,.89.89,0,0,1-1,.79L79.55,22.1Z"/></svg>